<svg xmlns="http://www.w3.org/2000/svg" xmlns:xlink="http://www.w3.org/1999/xlink" version="1.1" width="256" height="256" viewBox="0 0 256 256" xml:space="preserve">

<defs>
</defs>
<g style="stroke: none; stroke-width: 0; stroke-dasharray: none; stroke-linecap: butt; stroke-linejoin: miter; stroke-miterlimit: 10; fill: none; fill-rule: nonzero; opacity: 1;" transform="translate(1.4065934065934016 1.4065934065934016) scale(2.81 2.81)" >
	<path d="M 81.595 83.507 H 8.405 C 4.315 83.507 1 80.192 1 76.103 V 19.145 c 0 -4.089 3.315 -7.405 7.405 -7.405 h 73.191 c 4.089 0 7.405 3.315 7.405 7.405 v 56.958 C 89 80.192 85.685 83.507 81.595 83.507 z" style="stroke: none; stroke-width: 1; stroke-dasharray: none; stroke-linecap: butt; stroke-linejoin: miter; stroke-miterlimit: 10; fill: rgb(235,245,252); fill-rule: nonzero; opacity: 1;" transform=" matrix(1 0 0 1 0 0) " stroke-linecap="round" />
	<path d="M 81.596 84.507 H 8.404 C 3.77 84.507 0 80.736 0 76.103 V 19.145 c 0 -4.634 3.77 -8.404 8.404 -8.404 h 73.191 c 4.634 0 8.404 3.77 8.404 8.404 v 56.958 C 90 80.736 86.229 84.507 81.596 84.507 z M 8.404 12.74 C 4.873 12.74 2 15.613 2 19.145 v 56.958 c 0 3.531 2.873 6.404 6.404 6.404 h 73.191 c 3.531 0 6.404 -2.873 6.404 -6.404 V 19.145 c 0 -3.531 -2.873 -6.404 -6.404 -6.404 H 8.404 z" style="stroke: none; stroke-width: 1; stroke-dasharray: none; stroke-linecap: butt; stroke-linejoin: miter; stroke-miterlimit: 10; fill: rgb(0,0,0); fill-rule: nonzero; opacity: 1;" transform=" matrix(1 0 0 1 0 0) " stroke-linecap="round" />
	<path d="M 89 26.156 v -7.011 c 0 -4.089 -3.315 -7.405 -7.405 -7.405 H 8.405 C 4.315 11.74 1 15.055 1 19.145 v 7.011 H 89 z" style="stroke: none; stroke-width: 1; stroke-dasharray: none; stroke-linecap: butt; stroke-linejoin: miter; stroke-miterlimit: 10; fill: rgb(234,70,71); fill-rule: nonzero; opacity: 1;" transform=" matrix(1 0 0 1 0 0) " stroke-linecap="round" />
	<path d="M 90 27.156 H 0 v -8.011 c 0 -4.634 3.77 -8.404 8.404 -8.404 h 73.191 c 4.634 0 8.404 3.77 8.404 8.404 V 27.156 z M 2 25.156 h 86 v -6.011 c 0 -3.531 -2.873 -6.404 -6.404 -6.404 H 8.404 C 4.873 12.74 2 15.613 2 19.145 V 25.156 z" style="stroke: none; stroke-width: 1; stroke-dasharray: none; stroke-linecap: butt; stroke-linejoin: miter; stroke-miterlimit: 10; fill: rgb(0,0,0); fill-rule: nonzero; opacity: 1;" transform=" matrix(1 0 0 1 0 0) " stroke-linecap="round" />
	<path d="M 21.123 18.277 L 21.123 18.277 c -2.047 0 -3.707 -1.659 -3.707 -3.706 v -4.371 c 0 -2.047 1.659 -3.706 3.706 -3.706 h 0 c 2.047 0 3.706 1.659 3.706 3.706 v 4.371 C 24.829 16.618 23.17 18.277 21.123 18.277 z" style="stroke: none; stroke-width: 1; stroke-dasharray: none; stroke-linecap: butt; stroke-linejoin: miter; stroke-miterlimit: 10; fill: rgb(212,222,251); fill-rule: nonzero; opacity: 1;" transform=" matrix(1 0 0 1 0 0) " stroke-linecap="round" />
	<path d="M 68.877 18.277 L 68.877 18.277 c -2.047 0 -3.707 -1.659 -3.707 -3.706 v -4.371 c 0 -2.047 1.659 -3.706 3.706 -3.706 h 0 c 2.047 0 3.706 1.659 3.706 3.706 v 4.371 C 72.584 16.618 70.924 18.277 68.877 18.277 z" style="stroke: none; stroke-width: 1; stroke-dasharray: none; stroke-linecap: butt; stroke-linejoin: miter; stroke-miterlimit: 10; fill: rgb(212,222,251); fill-rule: nonzero; opacity: 1;" transform=" matrix(1 0 0 1 0 0) " stroke-linecap="round" />
	<path d="M 21.123 19.277 c -2.595 0 -4.707 -2.111 -4.707 -4.707 v -4.372 c 0 -2.595 2.111 -4.706 4.707 -4.706 s 4.707 2.111 4.707 4.706 v 4.372 C 25.829 17.166 23.718 19.277 21.123 19.277 z M 21.123 7.493 c -1.492 0 -2.707 1.214 -2.707 2.706 v 4.372 c 0 1.492 1.214 2.707 2.707 2.707 s 2.707 -1.214 2.707 -2.707 v -4.372 C 23.829 8.707 22.615 7.493 21.123 7.493 z" style="stroke: none; stroke-width: 1; stroke-dasharray: none; stroke-linecap: butt; stroke-linejoin: miter; stroke-miterlimit: 10; fill: rgb(0,0,0); fill-rule: nonzero; opacity: 1;" transform=" matrix(1 0 0 1 0 0) " stroke-linecap="round" />
	<path d="M 68.877 19.277 c -2.595 0 -4.706 -2.111 -4.706 -4.707 v -4.372 c 0 -2.595 2.111 -4.706 4.706 -4.706 c 2.596 0 4.707 2.111 4.707 4.706 v 4.372 C 73.584 17.166 71.473 19.277 68.877 19.277 z M 68.877 7.493 c -1.492 0 -2.706 1.214 -2.706 2.706 v 4.372 c 0 1.492 1.214 2.707 2.706 2.707 s 2.707 -1.214 2.707 -2.707 v -4.372 C 71.584 8.707 70.369 7.493 68.877 7.493 z" style="stroke: none; stroke-width: 1; stroke-dasharray: none; stroke-linecap: butt; stroke-linejoin: miter; stroke-miterlimit: 10; fill: rgb(0,0,0); fill-rule: nonzero; opacity: 1;" transform=" matrix(1 0 0 1 0 0) " stroke-linecap="round" />
	<path d="M 80.248 39.742 H 9.752 c -0.552 0 -1 -0.448 -1 -1 s 0.448 -1 1 -1 h 70.496 c 0.553 0 1 0.448 1 1 S 80.801 39.742 80.248 39.742 z" style="stroke: none; stroke-width: 1; stroke-dasharray: none; stroke-linecap: butt; stroke-linejoin: miter; stroke-miterlimit: 10; fill: rgb(0,0,0); fill-rule: nonzero; opacity: 1;" transform=" matrix(1 0 0 1 0 0) " stroke-linecap="round" />
	<path d="M 80.248 50.56 H 9.752 c -0.552 0 -1 -0.447 -1 -1 s 0.448 -1 1 -1 h 70.496 c 0.553 0 1 0.447 1 1 S 80.801 50.56 80.248 50.56 z" style="stroke: none; stroke-width: 1; stroke-dasharray: none; stroke-linecap: butt; stroke-linejoin: miter; stroke-miterlimit: 10; fill: rgb(0,0,0); fill-rule: nonzero; opacity: 1;" transform=" matrix(1 0 0 1 0 0) " stroke-linecap="round" />
	<path d="M 80.248 61.377 H 9.752 c -0.552 0 -1 -0.447 -1 -1 s 0.448 -1 1 -1 h 70.496 c 0.553 0 1 0.447 1 1 S 80.801 61.377 80.248 61.377 z" style="stroke: none; stroke-width: 1; stroke-dasharray: none; stroke-linecap: butt; stroke-linejoin: miter; stroke-miterlimit: 10; fill: rgb(0,0,0); fill-rule: nonzero; opacity: 1;" transform=" matrix(1 0 0 1 0 0) " stroke-linecap="round" />
	<path d="M 80.248 72.194 H 9.752 c -0.552 0 -1 -0.447 -1 -1 s 0.448 -1 1 -1 h 70.496 c 0.553 0 1 0.447 1 1 S 80.801 72.194 80.248 72.194 z" style="stroke: none; stroke-width: 1; stroke-dasharray: none; stroke-linecap: butt; stroke-linejoin: miter; stroke-miterlimit: 10; fill: rgb(0,0,0); fill-rule: nonzero; opacity: 1;" transform=" matrix(1 0 0 1 0 0) " stroke-linecap="round" />
	<path d="M 22.283 78.235 c -0.552 0 -1 -0.447 -1 -1 V 32.702 c 0 -0.552 0.448 -1 1 -1 s 1 0.448 1 1 v 44.534 C 23.283 77.788 22.835 78.235 22.283 78.235 z" style="stroke: none; stroke-width: 1; stroke-dasharray: none; stroke-linecap: butt; stroke-linejoin: miter; stroke-miterlimit: 10; fill: rgb(0,0,0); fill-rule: nonzero; opacity: 1;" transform=" matrix(1 0 0 1 0 0) " stroke-linecap="round" />
	<path d="M 37.428 78.235 c -0.552 0 -1 -0.447 -1 -1 V 32.702 c 0 -0.552 0.448 -1 1 -1 s 1 0.448 1 1 v 44.534 C 38.428 77.788 37.98 78.235 37.428 78.235 z" style="stroke: none; stroke-width: 1; stroke-dasharray: none; stroke-linecap: butt; stroke-linejoin: miter; stroke-miterlimit: 10; fill: rgb(0,0,0); fill-rule: nonzero; opacity: 1;" transform=" matrix(1 0 0 1 0 0) " stroke-linecap="round" />
	<path d="M 52.572 78.235 c -0.553 0 -1 -0.447 -1 -1 V 32.702 c 0 -0.552 0.447 -1 1 -1 s 1 0.448 1 1 v 44.534 C 53.572 77.788 53.125 78.235 52.572 78.235 z" style="stroke: none; stroke-width: 1; stroke-dasharray: none; stroke-linecap: butt; stroke-linejoin: miter; stroke-miterlimit: 10; fill: rgb(0,0,0); fill-rule: nonzero; opacity: 1;" transform=" matrix(1 0 0 1 0 0) " stroke-linecap="round" />
	<path d="M 67.717 78.235 c -0.553 0 -1 -0.447 -1 -1 V 32.702 c 0 -0.552 0.447 -1 1 -1 s 1 0.448 1 1 v 44.534 C 68.717 77.788 68.27 78.235 67.717 78.235 z" style="stroke: none; stroke-width: 1; stroke-dasharray: none; stroke-linecap: butt; stroke-linejoin: miter; stroke-miterlimit: 10; fill: rgb(0,0,0); fill-rule: nonzero; opacity: 1;" transform=" matrix(1 0 0 1 0 0) " stroke-linecap="round" />
</g>
</svg>